<svg xmlns="http://www.w3.org/2000/svg" width="402.553" height="229.586" viewBox="0 0 402.553 229.586">
    <defs>
        <style>
            .cls-1{fill:#1de9b6}.cls-2{fill:#465dbe}.cls-3{fill:#3b4d9e}.cls-4{fill:#1bbf90}.cls-5{fill:#1fe88c}.cls-6{fill:#5e64a8}.cls-7{fill:#525290}.cls-8{fill:#3ca3a4}.cls-10,.cls-11,.cls-12,.cls-13,.cls-9{fill:none;stroke:#148b7a;stroke-linecap:round;stroke-linejoin:round}.cls-9{stroke-width:.411px}.cls-10{stroke-width:.59px}.cls-11{stroke-width:.423px}.cls-12{stroke-width:.434px}.cls-13{stroke-width:.443px}
        </style>
    </defs>
    <g id="Group_3651" data-name="Group 3651" transform="translate(-823.734 -584.16)">
        <g id="Group_62" data-name="Group 62" transform="translate(831.271 588.821)">
            <g id="Group_51" data-name="Group 51" transform="rotate(-11 259.033 64.448)">
                <path id="Path_397" d="M831.272 563.033c-.152.252 22.723 31.543 51.493 15.317s-51.493-15.317-51.493-15.317z" class="cls-1" data-name="Path 397" transform="translate(-831.271 -563.023)"/>
            </g>
            <g id="Group_52" data-name="Group 52" transform="rotate(-5.13 653.692 -491.302)">
                <path id="Path_398" d="M889.037 625.162c.293 0 14.274-36.263-14.626-52.25s14.626 52.25 14.626 52.25z" class="cls-1" data-name="Path 398" transform="translate(-864.503 -570.487)"/>
            </g>
            <g id="Group_53" data-name="Group 53" transform="rotate(-14 97.865 -62.776)">
                <path id="Path_399" d="M850.442 545.817c-.206.126 2.687 30.408 28.72 29.036s-28.72-29.036-28.72-29.036z" class="cls-1" data-name="Path 399" transform="translate(-850.432 -545.817)"/>
            </g>
            <g id="Group_54" data-name="Group 54" transform="rotate(-17 31.758 -143.449)">
                <path id="Path_400" d="M896.987 537.109c-.142-.195-29.678 5.5-25.934 31.607s25.934-31.607 25.934-31.607z" class="cls-1" data-name="Path 400" transform="translate(-870.725 -537.104)"/>
            </g>
            <g id="Group_55" data-name="Group 55" transform="rotate(-5.13 367.337 -641.33)">
                <path id="Path_401" d="M916.8 571.775c.125-.208-16.3-25.69-38.745-12.274s38.745 12.274 38.745 12.274z" class="cls-1" data-name="Path 401" transform="translate(-873.104 -555.6)"/>
            </g>
            <g id="Group_56" data-name="Group 56" transform="rotate(-13 220.824 -192.688)">
                <path id="Path_402" d="M902.177 594.712c.214-.11-.431-30.526-26.492-31.129s26.492 31.129 26.492 31.129z" class="cls-1" data-name="Path 402" transform="translate(-868.432 -563.575)"/>
            </g>
            <g id="Group_57" data-name="Group 57" transform="rotate(-11 363.394 5.396)">
                <path id="Path_403" d="M839.189 594.063c.013.242 27.758 11.965 38.858-11.9s-38.858 11.9-38.858 11.9z" class="cls-1" data-name="Path 403" transform="translate(-839.189 -573.952)"/>
            </g>
            <g id="Group_58" data-name="Group 58" transform="rotate(-5.13 462.367 -414.225)">
                <path id="Path_404" d="M860.828 679.253h1.7v-30.858c.02-.483 2-51.624 4.017-63.818 1.972-11.932 14.809-23.022 14.939-23.134l-1.1-1.292c-.547.468-13.439 11.6-15.512 24.147-2.032 12.3-3.958 61.958-4.04 64.065z" class="cls-1" data-name="Path 404" transform="translate(-860.828 -560.151)"/>
            </g>
            <g id="Group_59" data-name="Group 59" transform="translate(31.387 158.479)">
                <path id="Path_405" d="M850.437 633.876l.55 6.147 4.037 45.116h26.561l4.037-45.116.55-6.147z" class="cls-2" data-name="Path 405" transform="translate(-850.437 -633.876)"/>
            </g>
            <g id="Group_60" data-name="Group 60" transform="translate(31.387 158.479)">
                <path id="Path_406" d="M850.437 633.876l.55 6.147h34.634l.55-6.147z" class="cls-3" data-name="Path 406" transform="translate(-850.437 -633.876)"/>
            </g>
            <g id="Group_61" data-name="Group 61" transform="translate(30.05 154.587)">
                <path id="Rectangle_16" d="M0 0h38.457v7.277H0z" class="cls-2" data-name="Rectangle 16" transform="rotate(-180 19.229 3.638)"/>
            </g>
        </g>
        <g id="Group_135" data-name="Group 135" transform="translate(1128.14 669.448)">
            <g id="Group_129" data-name="Group 129" transform="rotate(-8 149.119 -142.555)">
                <path id="Path_466" d="M1041.327 682.486c-2.3-.21-4.879-1.5-7.471-2.967a145.18 145.18 0 0 1-2.435-19.324 122.32 122.32 0 0 1 12.04 2.409c-2.239-.583-7.189-3.65-12.241-6.2q-.179-4.178-.185-8.562a165.593 165.593 0 0 1 2.7-31.049 57.307 57.307 0 0 1 9.982 3.7c-2.172-1.063-5.531-4.787-9.038-7.98 2.383-9.71 5.737-15.767 9.454-15.767 5.984 0 11.028 15.671 12.59 37.064-4.014 3.706-7.848 8.534-9.695 10.484 1.356-1.428 5.63-2.589 10.058-3.921q.138 3.66.141 7.473a181.249 181.249 0 0 1-1.41 23.065c-4.42 2.791-8.656 6.171-10.954 6.827a289.56 289.56 0 0 1 10.362-2.737c-2.318 14.38-6.417 23.946-11.092 23.946-3.885 0-7.373-6.611-9.772-17.1l6.966.639z" class="cls-4" data-name="Path 466" transform="translate(-1031.034 -596.746)"/>
            </g>
            <g id="Group_130" data-name="Group 130" transform="rotate(-9 24.698 84.662)">
                <path id="Path_467" d="M1040.983 685.548c-2.286.336-5.182-.493-8.146-1.533a204.516 204.516 0 0 1-8.378-21.571 105.877 105.877 0 0 1 12.387-.252c-2.345-.108-8.087-2.388-13.763-4.043q-1.476-4.748-2.85-9.78a232.988 232.988 0 0 1-7.073-36.315 52.31 52.31 0 0 1 10.8 1.741c-2.43-.675-6.839-4.109-11.225-6.895-.724-11.744.629-19.537 4.224-20.469 5.782-1.5 15.543 15.222 23.725 39.387-2.725 5.26-4.925 11.762-6.1 14.465.866-1.98 4.637-4.386 8.5-7.022q1.272 4.166 2.466 8.542a255.7 255.7 0 0 1 5.827 26.828c-3.4 4.31-6.443 9.254-8.459 10.584a248.88 248.88 0 0 1 9.161-5.74c2.245 17.087 1.264 29.095-3.252 30.266-3.757.974-9.189-5.738-14.777-17.176z" class="cls-5" data-name="Path 467" transform="translate(-1012.547 -586.337)"/>
            </g>
            <g id="Group_131" data-name="Group 131" transform="rotate(-8 326.564 -198.098)">
                <path id="Path_468" d="M1044.049 674.586c-1.808-1.4-3.3-3.767-4.7-6.284a122.3 122.3 0 0 1 7.913-16.006c3.034 2.647 6 5.373 8.8 8.323-1.566-1.651-4.117-6.652-7.021-11.31q2-3.274 4.25-6.611a141.829 141.829 0 0 1 18.227-22.156 58.939 58.939 0 0 1 6.423 8.19c-1.266-1.978-2.15-6.621-3.433-10.94 6.985-6.1 12.9-8.9 16-6.893 4.992 3.226 1.135 17.859-8.571 34.971-5.254.653-10.936 2.258-13.483 2.746 1.869-.355 6.032 1.066 10.409 2.44q-1.769 2.857-3.727 5.758a154.658 154.658 0 0 1-13.046 16.779c-5.122-.262-10.4.026-12.651-.714a322.753 322.753 0 0 1 10.051 3.5c-9.332 9.687-17.674 14.749-21.573 12.23-3.241-2.095-2.748-9 .649-18.27q2.741 2.125 5.483 4.247z" class="cls-1" data-name="Path 468" transform="translate(-1035.731 -610.257)"/>
            </g>
            <g id="Group_132" data-name="Group 132" transform="translate(7.131 109.641)">
                <path id="Path_469" d="M1083.395 653.287l-1.338 6.537-5.7 28.12h-52.411l-5.7-28.12-1.338-6.537z" class="cls-6" data-name="Path 469" transform="translate(-1016.902 -653.287)"/>
            </g>
            <g id="Group_133" data-name="Group 133" transform="translate(7.131 106.935)">
                <path id="Path_470" d="M1083.395 651.634v2.707l-1.338 6.537h-63.818l-1.338-6.537v-2.707z" class="cls-7" data-name="Path 470" transform="translate(-1016.902 -651.634)"/>
            </g>
            <g id="Group_134" data-name="Group 134" transform="translate(1.091 101.063)">
                <path id="Rectangle_35" d="M0 0h76.552v11.233H0z" class="cls-6" data-name="Rectangle 35"/>
            </g>
        </g>
        <g id="Group_144" data-name="Group 144" transform="translate(1003.443 750.9)">
            <g id="Group_136" data-name="Group 136" transform="rotate(-5.13 354.958 -27.347)">
                <path id="Path_471" d="M971.528 664.938a32.286 32.286 0 0 0-7.058-3.618 61.715 61.715 0 0 0-10.239-2.712c-6.59-1.235-16.165-1.892-16.151-3.315.006-.662 2.3-1.408 5.6-1.959a43.014 43.014 0 0 1 11.559-.334 27.238 27.238 0 0 1 11.467 4 19.57 19.57 0 0 1 6.277 6.426z" class="cls-8" data-name="Path 471" transform="translate(-938.08 -652.752)"/>
                <path id="Path_472" d="M971.061 663.149c-3.647-3.958-8.9-6.436-14.346-7.677a70.472 70.472 0 0 0-16.866-1.232" class="cls-9" data-name="Path 472" transform="translate(-936.952 -651.822)"/>
                <path id="Line_3" d="M1.666 1.416L0 0" class="cls-9" data-name="Line 3" transform="translate(8.681 1.058)"/>
                <path id="Path_473" d="M946.2 654.334c-.508.558-1 1.125-1.485 1.7" class="cls-9" data-name="Path 473" transform="translate(-933.849 -651.743)"/>
                <path id="Path_474" d="M948.659 655.31q-.481-.889-1-1.757" class="cls-9" data-name="Path 474" transform="translate(-931.974 -652.241)"/>
                <path id="Path_475" d="M951 654.98c-.76.472-1.487.956-2.2 1.467" class="cls-9" data-name="Path 475" transform="translate(-931.24 -651.331)"/>
                <path id="Path_476" d="M952.646 656.487a35.905 35.905 0 0 0-1.166-2.407" class="cls-9" data-name="Path 476" transform="translate(-929.535 -651.905)"/>
                <path id="Path_477" d="M956.072 656.9c-.667.144-1.3.283-1.941.473" class="cls-9" data-name="Path 477" transform="translate(-927.845 -650.107)"/>
            </g>
            <g id="Group_137" data-name="Group 137" transform="rotate(-6 106.857 17.96)">
                <path id="Path_478" d="M976.32 673.521a29.394 29.394 0 0 1-4.846-4.289c-1.547-1.677-3.017-3.541-4.482-5.347a51.06 51.06 0 0 0-4.718-5.175 59.915 59.915 0 0 0-6.074-4.97 117.626 117.626 0 0 0-12.9-7.749c-4.1-2.178-7.163-3.889-6.881-4.843.264-.9 3.819-1.03 8.665-.131a48.635 48.635 0 0 1 7.916 2.171 43.217 43.217 0 0 1 7.951 3.883 34.36 34.36 0 0 1 7.266 6.112 31.751 31.751 0 0 1 4.669 6.942c1.115 2.244 1.975 4.3 2.818 6.158a40.905 40.905 0 0 0 2.617 4.987z" class="cls-8" data-name="Path 478" transform="translate(-936.404 -640.404)"/>
                <path id="Path_479" d="M975.616 671.515c-3.043-3.089-5.023-6.708-7.18-10.067-.542-.843-1.1-1.665-1.677-2.476s-1.232-1.557-1.854-2.342a41.205 41.205 0 0 0-4.3-4.2 51.015 51.015 0 0 0-10.266-6.508 79.88 79.88 0 0 0-11.437-4.405" class="cls-10" data-name="Path 479" transform="translate(-934.812 -639.694)"/>
                <path id="Path_480" d="M945.641 644.908a56.657 56.657 0 0 0-1.5-2.782" class="cls-10" data-name="Path 480" transform="translate(-931.47 -639.307)"/>
                <path id="Path_481" d="M947.778 644.594c-.991.464-1.946.917-2.9 1.433" class="cls-10" data-name="Path 481" transform="translate(-931 -637.733)"/>
                <path id="Path_482" d="M950.053 647.664a42.616 42.616 0 0 0-.254-2.905" class="cls-10" data-name="Path 482" transform="translate(-927.862 -637.628)"/>
                <path id="Path_483" d="M953.607 648.182c-1.256.078-2.537.291-3.735.486" class="cls-10" data-name="Path 483" transform="translate(-927.816 -635.445)"/>
                <path id="Path_484" d="M954.355 651.781a33.414 33.414 0 0 0 .17-3.852" class="cls-10" data-name="Path 484" transform="translate(-924.957 -635.606)"/>
                <path id="Path_485" d="M958.35 654.54c-.93-.3-1.857-.594-2.777-.842" class="cls-10" data-name="Path 485" transform="translate(-924.181 -631.928)"/>
            </g>
            <g id="Group_138" data-name="Group 138" transform="rotate(-8 19.403 -227.229)">
                <path id="Path_486" d="M960.874 673.662c-.811-4.911-1.852-11.935-2.491-20.449-.27-3.583-.55-7.776-.68-11.125s-.07-5.856.617-6.007c.663-.144 1.914 2.062 3.1 5.306a59.064 59.064 0 0 1 2.807 11.349 53.059 53.059 0 0 1-1.2 20.888z" class="cls-8" data-name="Path 486" transform="translate(-957.648 -636.074)"/>
                <path id="Path_487" d="M961.441 672.373a137.723 137.723 0 0 0-2.941-34.514" class="cls-11" data-name="Path 487" transform="translate(-957.105 -634.936)"/>
                <path id="Line_4" d="M0 1.958L1.102 0" class="cls-11" data-name="Line 4" transform="translate(2.79 8.505)"/>
                <path id="Path_488" d="M960.327 644.152q-1-.582-2.026-1.141" class="cls-11" data-name="Path 488" transform="translate(-957.232 -631.65)"/>
                <path id="Line_5" d="M0 1.438L1.496 0" class="cls-11" data-name="Line 5" transform="translate(3.65 15.505)"/>
                <path id="Path_489" d="M960.884 649.066c-.7-.6-1.389-1.186-2.1-1.762" class="cls-11" data-name="Path 489" transform="translate(-956.925 -628.913)"/>
                <path id="Line_6" d="M0 1.973L1.897 0" class="cls-11" data-name="Line 6" transform="translate(4.219 21.76)"/>
                <path id="Line_7" d="M1.377 1.581L0 0" class="cls-11" data-name="Line 7" transform="translate(3.056 27.955)"/>
            </g>
            <g id="Group_139" data-name="Group 139" transform="rotate(-9 29.922 -230.663)">
                <path id="Path_490" d="M961.164 674.4a83.873 83.873 0 0 1 3.912-21.275c2.319-7.2 6.479-16.359 7.836-15.9 1.335.454-.213 10.224-2.09 17.724a93.383 93.383 0 0 1-7.484 19.876z" class="cls-8" data-name="Path 490" transform="translate(-961.164 -637.215)"/>
                <path id="Path_491" d="M961.866 673.34q4.517-17.284 9.761-34.319" class="cls-12" data-name="Path 491" transform="translate(-960.716 -636.063)"/>
                <path id="Line_8" d="M0 1.299L1.889 0" class="cls-12" data-name="Line 8" transform="translate(8.643 9.149)"/>
                <path id="Line_9" d="M1.396 1.944L0 0" class="cls-12" data-name="Line 9" transform="translate(6.648 10.525)"/>
                <path id="Line_10" d="M0 .764L1.984 0" class="cls-12" data-name="Line 10" transform="translate(6.759 16.107)"/>
                <path id="Line_11" d="M1.354 2.485L0 0" class="cls-12" data-name="Line 11" transform="translate(4.494 17.568)"/>
                <path id="Line_12" d="M0 1.252L2.511 0" class="cls-12" data-name="Line 12" transform="translate(4.845 22.355)"/>
                <path id="Line_13" d="M.892 1.978L0 0" class="cls-12" data-name="Line 13" transform="translate(2.363 27.399)"/>
            </g>
            <g id="Group_140" data-name="Group 140" transform="rotate(-10.02 176.536 -192.728)">
                <path id="Path_492" d="M958.354 668.384a23.687 23.687 0 0 1 7.065-7.741 39.9 39.9 0 0 1 11.634-5.9 42.62 42.62 0 0 1 6.117-1.4 47.226 47.226 0 0 1 5.868-.47 39.4 39.4 0 0 0 4.289-.326c1.1-.154 1.862-.288 2.068.023.19.287-.206 1.056-1.227 1.909a14.642 14.642 0 0 1-4.405 2.289c-1.79.614-3.606 1.2-5.385 1.81-1.849.63-3.718 1.338-5.462 2.021-4 1.567-7.622 3.113-10.843 4.564a35.308 35.308 0 0 0-7.869 4.517z" class="cls-8" data-name="Path 492" transform="translate(-958.354 -652.381)"/>
                <path id="Path_493" d="M958.99 668.252a26.451 26.451 0 0 1 7.217-5.956 60.6 60.6 0 0 1 8.159-4.1 61.657 61.657 0 0 1 8.6-2.814 64.16 64.16 0 0 1 4.408-.914 32.448 32.448 0 0 0 4.563-1.022" class="cls-13" data-name="Path 493" transform="translate(-957.948 -651.701)"/>
                <path id="Path_494" d="M974.281 654.475c.7.352 1.377.694 2.05 1.069" class="cls-13" data-name="Path 494" transform="translate(-948.198 -651.046)"/>
                <path id="Path_495" d="M973.018 655.657q.469-1.125.994-2.235" class="cls-13" data-name="Path 495" transform="translate(-949.003 -651.717)"/>
                <path id="Path_496" d="M970.3 655.616c.6.4 1.2.812 1.777 1.225" class="cls-13" data-name="Path 496" transform="translate(-950.736 -650.318)"/>
                <path id="Path_497" d="M968.379 657.379c.373-.888.779-1.762 1.205-2.648" class="cls-13" data-name="Path 497" transform="translate(-951.961 -650.883)"/>
                <path id="Path_498" d="M966.278 657.291c.883.347 1.762.732 2.615 1.114" class="cls-13" data-name="Path 498" transform="translate(-953.301 -649.25)"/>
                <path id="Path_499" d="M962.992 659.918c.242-.7.5-1.407.775-2.1" class="cls-13" data-name="Path 499" transform="translate(-955.396 -648.916)"/>
            </g>
            <g id="Group_141" data-name="Group 141" transform="translate(22.829 39.923)">
                <path id="Path_500" d="M984.993 660.452l-1.318 3.188-6.83 16.537-17.957-.023-7.173-16.514-1.371-3.188z" class="cls-6" data-name="Path 500" transform="translate(-950.344 -660.452)"/>
            </g>
            <g id="Group_142" data-name="Group 142" transform="translate(22.829 38.89)">
                <path id="Path_501" d="M984.993 659.821v1.032l-1.318 3.188h-31.96l-1.371-3.188v-1.032z" class="cls-7" data-name="Path 501" transform="translate(-950.344 -659.821)"/>
            </g>
            <g id="Group_143" data-name="Group 143" transform="translate(20.519 35.825)">
                <path id="Path_502" d="M986.694 664.067l-37.761-2.027v-4.091l41.225.017z" class="cls-6" data-name="Path 502" transform="translate(-948.934 -657.949)"/>
            </g>
        </g>
    </g>
</svg>