<svg xmlns="http://www.w3.org/2000/svg" width="223.084" height="235.394" viewBox="0 0 223.084 235.394">
    <defs>
        <style>
            .cls-1{fill:#dfd4d4}
        </style>
    </defs>
    <path id="Path_440" d="M1250.512 705.818a18.214 18.214 0 0 0-17.552-13.463h-16.154V659.27h35.629v-3.357a1.435 1.435 0 0 0 1.228-.691c10.175-16.734 2.642-42.74.59-49.01V572.54h-15.773c.09-.329.18-.655.267-.966l.11-.395c.129-.457.254-.9.372-1.309s.228-.83.328-1.246c.028-.113.054-.226.08-.339.075-.336.146-.67.208-1 .016-.092.036-.183.052-.275.074-.419.138-.839.187-1.256.008-.061.013-.121.02-.182q.061-.546.094-1.086c0-.093.01-.188.015-.282a17.445 17.445 0 0 0-.056-2.487 10.11 10.11 0 0 0-.023-.2 14.659 14.659 0 0 0-.151-1.053c-.011-.065-.021-.129-.034-.195-1.29-6.652-7.185-11.984-21.676-12.707a124.652 124.652 0 0 1-.472-2.555l-.03-.17c-.049-.28-.1-.56-.144-.837l-.021-.129c-.093-.557-.183-1.1-.269-1.634.195.059.436.124.76.192a10.11 10.11 0 0 0 1.706.208 7.711 7.711 0 0 0 3.192-.521 2.583 2.583 0 0 0 1.5-1.325 2.239 2.239 0 0 0 .159-.495 2.619 2.619 0 0 0 .036-.341 3.176 3.176 0 0 0-.047-.655 4.185 4.185 0 0 0-.459-1.284 5.876 5.876 0 0 0 6.258-2.158 4.5 4.5 0 0 0 .367-.557c.038-.067.067-.131.1-.2a3.406 3.406 0 0 0 .147-.334c.029-.08.057-.159.082-.239s.044-.18.062-.27.038-.169.046-.25c.265-2.4-2.53-4.083-2.53-4.083s3.344-.108 4.417-3.022-2.583-5.719-2.583-5.719a4.284 4.284 0 0 0 2.373-5.394c-1.077-4.1-7.012-3.393-7.012-3.393s.324-4.7-3.668-5.886a5.72 5.72 0 0 0-6.257 2.267s.108-4.639-7.013-2.913-6.149 6.533-6.149 6.533a6 6 0 0 0-3.082 6.079c.013.062.026.124.041.187a3.851 3.851 0 0 0 .3.843v.005a3.743 3.743 0 0 0 .531.753c.051.057.1.113.161.17a4.163 4.163 0 0 0 .8.642 3.9 3.9 0 0 0 1.559.565 3.579 3.579 0 0 0 .673.015 23.277 23.277 0 0 0-1.06 3.18c-2.447 9.667-1.729 15.458.9 17.733 1.461 1.263 4.354 1.307 7.677.321-.021.477-.051.966-.1 1.472v.025c-.038.4-.083.8-.141 1.2a15.746 15.746 0 0 1-.578 2.579 81.052 81.052 0 0 0-11.252 2.095l-13.794-3.359s-.4.421-.986 1.145c-.1-.031-.19-.057-.293-.093l-.029-.01a32.878 32.878 0 0 1-2.086-.793c-2.725-1.133-5.742-2.778-6.96-4.422-1.377-1.862-1.922-4.247-2.856-6.3-1.269-2.787-2.435-5.712-3.577-8.653-1.222-3.152-2.455-6.3-3.647-9.462a192.74 192.74 0 0 1-1.778-4.9 12.09 12.09 0 0 1-.9-5.3 9.15 9.15 0 0 1 1.434-4.584c1.674-2.119 2.714-8.472 1.248-6.87s-2.794 4.707-4.227 4.3.085-8.681.061-10.943-1.738 1.118-2.312 3.418c-.73-1.965-1.813-5.686-2.661-3.862s-4.291 6.446-3.673 8.544c.612 2.08 1.392 4.122 2.113 6.166.706 2.006 1.633 3.935 2.175 6a39.7 39.7 0 0 1 .758 6.293c.447 4.6.919 9.212 1.646 13.779.517 3.256 1.063 6.516 1.783 9.829.588 2.528 1.119 5 2.021 7.684.3.879.63 1.782 1.022 2.717 2.378 5.691 8.376 9.659 13.594 12.435.359.19.737.354 1.1.54a13.908 13.908 0 0 0 .244 2.006c1.2 2 8.4 4.8 13.16 6.477a71.263 71.263 0 0 0 .424 12.007 73.455 73.455 0 0 1 .516 8.467c-1.487.059-2.978.075-4.463.092a206.587 206.587 0 0 1-22.854-.614c-1.577-1.5-4.245-3.9-5.718-4.5-2.177-.888-4.8-3.6-5.488-3.207s.92 2.691 1.783 4.237-4.425 1.333-6.371.244-4.744-3.2-4.662-1.751 4.417 4.188 4.417 4.188-5.321-1.579-5.676-.9 3.267 6.264 5.023 6.9 7.13 1.559 10.72.259a9.032 9.032 0 0 1 5.365.393l.016-.039a208.661 208.661 0 0 0 22.574 5.643c1.7.278 3.423.529 5.165.745a343.64 343.64 0 0 1-.17 4.171 447.667 447.667 0 0 1-.363 6.683h-75.474v-2.879h-33.143l-1.639-27.912h-12.7l1.808 30.791h-35.143v6.538h19.765l-7.941 96.67h4.14l7.99-96.67h29.46l8.2 96.67h4.25l-8.152-96.67h50.774l-2.605 30.6c-5.432 12.382-16.577 50.969-16.577 50.969l.632.221c-1.259 2.037-3.649 5.167-6.967 6.21-3.845 1.123-9.462 1.5-11.616 2.622s-1.592 4.494-1.592 4.494h22.467c1.089 0 2.681-7.317 3.472-11.321l.667.232s2.4-3.48 5.771-9.479l-1.883 22.118h4.291l2.738-31.941a178.282 178.282 0 0 0 11.122-28.651s1.6-.136 4.381-.624c.884 19.449 3.74 55.132 3.74 55.132h1.109a8.306 8.306 0 0 1-5.108 5.162c-3.845 1.123-9.462 1.5-11.614 2.622s-1.592 4.494-1.592 4.494h22.465c1.151 0 1.086-8.7 1-12.748 2.1-3.488 3.449-10.347 4.3-18.167l.007-.069c.111-1.007.213-2.031.306-3.064.007-.078.015-.157.021-.236.947-10.52 1.12-22.035 1.12-29.1v-.08c0-.614 0-1.194-.005-1.736h6.8l2.489 37.106a18.227 18.227 0 0 0-6.143 9.356 6.7 6.7 0 1 0 7.468 10.366l.146 2.175h3.362l-1.181-17.695a12.559 12.559 0 0 1 7.733-2.664h16.191a2.845 2.845 0 0 0 5.583 0h16.19a12.65 12.65 0 0 1 11.873 8.342 6.705 6.705 0 1 0 5.679-.439zm-68.412-82.581l-.11-1.633h4.16c-1.195.46-2.55 1.004-4.05 1.633zm70.021 28.849a9.687 9.687 0 0 0-9.382-7.3h-18.422c10.434-6.187 4.54-25.15 4.54-25.15a103.92 103.92 0 0 1 1.719-12.864h20.824c1.657 5.055 8.9 29.42.725 45.314zm-105.592-6.233l2.078-24.249h29.981l.206 3.079c-9.253 4.189-21.855 11.102-32.26 21.17zm36.549 60.518a12.569 12.569 0 0 1 1.048-2.242l.217 3.221a6.76 6.76 0 0 0-1.26-.979zm3.762-12.066l-2.339-35.035h26.645v33.084H1195a18.062 18.062 0 0 0-8.155 1.946z" class="cls-1" data-name="Path 440" transform="translate(-1035.78 -489.073)"/>
</svg>