<svg xmlns="http://www.w3.org/2000/svg" width="175.055" height="239.949" viewBox="0 0 175.055 239.949">
    <defs>
        <style>
            .cls-1{fill:#12a189}.cls-2{fill:#d08b73}.cls-3{fill:#e9e9e9}.cls-4{opacity:.3}.cls-5{fill:#282e5b}.cls-6{fill:#bc6c56}.cls-7{fill:#595a5b}.cls-8{fill:#ffb288}.cls-9{fill:#525290}.cls-10{fill:#0254a9}.cls-11{clip-path:url(#clip-path)}.cls-12{fill:#148a77}.cls-13{clip-path:url(#clip-path-2)}.cls-14{clip-path:url(#clip-path-3)}.cls-15{fill:#1e2750}.cls-16{fill:#2b2b2b}.cls-17{fill:#346ec1}.cls-18{fill:none;stroke:#dedfe0;stroke-miterlimit:10;stroke-width:3.443px}.cls-19{fill:#034c8a;stroke:#034c8a;stroke-linecap:round;stroke-linejoin:round;stroke-width:.973px}.cls-20{fill:#7985a5}.cls-21{fill:#a0aedf}.cls-22{fill:#848484}
        </style>
        <clipPath id="clip-path">
            <path id="Path_381" d="M944.225 522.213a24.8 24.8 0 0 0-2.588 5.229 109.528 109.528 0 0 0-2.522 6.777 109.039 109.039 0 0 0-3.8 14.1c-2 10.262-2.4 20.726-3.041 31.135-.3 4.906-.655 9.806-.994 14.709a23.151 23.151 0 0 0 1.507 11.081c.506 1.128 1.476 2.949 2.989 2.442a5.317 5.317 0 0 0 1.931-1.531 29.226 29.226 0 0 1 4.04-3.986c3.511-2.525 8.115-3.619 12.229-4.734 4.782-1.3 9.665-1.987 14.467-3.149a27.546 27.546 0 0 0 3-.917c.84-7.936 1.652-15.874 2.7-23.771a58.794 58.794 0 0 0-1.561-24.339 45.731 45.731 0 0 0-5.175-11.49c-2.357-3.709-5.652-7.047-8.365-10.543l-13.008-2.8z" class="cls-1" data-name="Path 381" transform="translate(-931.186 -520.421)"/>
        </clipPath>
        <clipPath id="clip-path-2">
            <path id="Path_384" d="M946.737 556.508a33.831 33.831 0 0 0 2.784 9.443 11.933 11.933 0 0 0 2.648 3.981 24.717 24.717 0 0 0 7.076 4.189c8.626 3.86 5.565 2.735 11.117 4.585a262.481 262.481 0 0 0 27.709 7.135c3.98 4.187 7.194 5.078 8.441 5.324a27.466 27.466 0 0 0 4.44.545 27.987 27.987 0 0 1 3.8.162c1.911.331 3.582 1.415 5.447 1.9 1.669.432 3.688-.077 3.965-2.06a2.878 2.878 0 0 0-1.018-2.363 21.091 21.091 0 0 0-6.945-4.636 353.79 353.79 0 0 0-15.25-4.729 176.257 176.257 0 0 0-23.651-13.722c-2.972-1.377-9.03-3.845-13.173-10.08a30.177 30.177 0 0 1-2.216-3.844z" class="cls-2" data-name="Path 384" transform="translate(-946.737 -552.34)"/>
        </clipPath>
        <clipPath id="clip-path-3">
            <path id="Path_387" d="M957.279 536.586a9.7 9.7 0 0 1 2.56-3.622c1.454-1.271 4.939-1.646 6.742-2.2 1.174-.362 2.273-.724 2.36-2.088.007-.121 1.292-13.887.481-15.166-.712-1.125-.817-6.58-1.084-7.274a7.6 7.6 0 0 1-.4-2.488c-.026-.576-.1-1.14-.174-1.713-.978.516-.657-.123-1.716-.1-1.205.025-1.526 1.122-1.875 2.116a10.08 10.08 0 0 1-2.434 4.353c-1.14 1.107-2.181 2.018-2.5 3.637-.1.537.364 6.362-1.772 4.928-1.061-.712-.973-3.169-1.158-4.176a5.452 5.452 0 0 0-1.988-3.089c-1.279-1.253-1.525-3.637-3.907-3-3.146.842-1.628 4.585-1.1 6.6a7.894 7.894 0 0 0 1.815 3.842 1.4 1.4 0 1 1 2.43.4c-.6 1.138.1 2.229.125 3.208.044 1.628-1.757 2.918-2.6 3.521a7.864 7.864 0 0 1-5.378 1.33 7.171 7.171 0 0 1-5.627 2.994z" class="cls-2" data-name="Path 387" transform="translate(-940.088 -501.93)"/>
        </clipPath>
    </defs>
    <g id="Group_3647" data-name="Group 3647" transform="translate(-990.029 -514.956)">
        <path id="Path_370" d="M1096.972 601.748h-35.9v-1.053h-4.857l.981-13.778 1.261.089 4.029-56.612-3.74-.265-.233 3.256-1.163-.082-3.437 48.314 1.163.082-.359 5.042 1.259.09-.986 13.864h-8.79v1.053h-9.182a2.411 2.411 0 0 0 .473-1.359c.016-.368-.08-.724-1.233-2.26-.9-1.2-1.711-2.155-2.293-2.815-2.525-.568-4.53-1.1-5.788-1.454-6.927-1.931-10.9-3.184-17.79-4.682a43.127 43.127 0 0 1-1.941-.388c-8.156-1.808-10.859-4.7-20.888-9.882-3.12-1.612-5.419-2.663-7.346-3.726a52.79 52.79 0 0 0-2.032-11.8 45.732 45.732 0 0 0-5.175-11.49c-.021-.033-.048-.066-.069-.1a22.6 22.6 0 0 0 1.431 1.788c.359.391.683.838.855.191a6.414 6.414 0 0 0-.2-2.065 10.139 10.139 0 0 0-.254-1.449 7.213 7.213 0 0 0-.825-1.913 21.731 21.731 0 0 0-5.39-5.435 9.687 9.687 0 0 1 2.342-3.4 65.288 65.288 0 0 0 3.051 2.917l3.162-5.129c.268-.065.519-.133.743-.2 1.174-.362 2.273-.724 2.36-2.088.007-.121 1.292-13.887.481-15.166-.681-1.074-.807-6.089-1.05-7.142 2.229-3.609 2.6-7.79.932-11.02a10.727 10.727 0 0 0-6.035-4.926 8.813 8.813 0 0 0-6.122-4.653 8.537 8.537 0 0 0-8.57 4.163 8.919 8.919 0 0 0-9.549 1.223 9.383 9.383 0 0 0-2.938 8.08 12.523 12.523 0 0 0-6.277 7.62 12.346 12.346 0 0 0 .889 8.663 6.569 6.569 0 0 0 5.755 10.651 4.966 4.966 0 0 0 1.422 2.676 3.2 3.2 0 0 0 .8.485 6.564 6.564 0 0 0-1.5 1.513c-.3.413-2.645 3.695-1.394 4.048a2.629 2.629 0 0 0 .717.024c.529-.033 1.051-.1 1.57-.182a30.938 30.938 0 0 0-2.121 4.5 109.74 109.74 0 0 0-2.522 6.776 109.067 109.067 0 0 0-3.8 14.1c-1.693 8.7-2.239 17.546-2.758 26.38l-.881-1.092q.233-18.689.468-37.376c-.177-.7-.647-2.188-1.7-2.643-5.44-2.362-7.278 10.167-7.682 12.908a93.046 93.046 0 0 0-.819 15.052l-.03-.036V639.9a18.255 18.255 0 0 0 15.6 18.08 3.291 3.291 0 0 0 2.041.719h52.084a3.323 3.323 0 0 0 3.324-3.323v-4.571a3.292 3.292 0 0 0-.481-1.7 33.718 33.718 0 0 0 4.088-.033 35.458 35.458 0 0 0 1.659-.177l-2.555 31.5c-3.459 6.351-6.046 11.1-6.2 11.4 0 0 .107.059.287.154l-1.1 2.024c-.008-.2 0-.331 0-.331-1.559-.614-3 .207-4.194.929-1.1.663-4.628 6.731-4.628 6.731l5.321 3.659a3.585 3.585 0 0 1 2.676-.064c1.281.576 3.275 6.551 3.275 6.551l9.105 3.97s1.21-1.3.874-2.144-3.6-3.023-5.067-5.1a5.2 5.2 0 0 1-.419-.755l1.017-12.548c2.474-1.287 11.719-8.565 19.778-16.246 1.318 6.032 2.4 11.287 2.552 13.172.36 4.453 3.275 16.377 3.275 16.377a.859.859 0 0 1 .095-.3l.064.6c-.121-.162-.188-.27-.188-.27-1.634.377-2.358 1.87-2.931 3.141-.527 1.168 0 8.169 0 8.169h6.459s-.512-2.137.87-2.388 6.158 2.388 6.158 2.388h17.207s.26-1.761-.495-2.263-9.047-2.262-11.434-3.141-8.778-4.146-8.778-4.146c-.1.047-.2.077-.3.118v-1.562a9.664 9.664 0 0 0 1.467-.346s4.734-44.576 5.162-57.587a22.972 22.972 0 0 0 .8-2.538c.614-2.525 1.343-4.824 2.05-7.279a16.3 16.3 0 0 0 .707-3.86 13.281 13.281 0 0 0-1.014-4.8 175.143 175.143 0 0 0-34.779-20.086l.351-4.328h73.241l8.45 104.154 2.111-.17-8.435-103.983h10.309zm-95.425 99.911c-.295-1.459-.467-2.568-.467-2.568-.113-.021-.211-.052-.319-.077l1.135-1.649zm9.569-53.486a20.4 20.4 0 0 1 5.378-.062 1.908 1.908 0 0 1 1.6.875 3.151 3.151 0 0 1 .185 1.03c.079.786.134 1.574.195 2.362a6089.94 6089.94 0 0 1-12.7 23.435l2.208-27.215a67.013 67.013 0 0 1 3.134-.426zm-11.482-46.424v5.946h9.536l-.282 3.48q-5.537-2.26-11.369-4.117a112.353 112.353 0 0 0-4.71-2.317c-2.972-1.377-9.03-3.845-13.173-10.08-.018-.026-.033-.052-.049-.079 1.744-.152 3.023-.267 3.023-.267l-1.818-2.478q.965.285 1.932.575c6.164 1.852 9.317 2.535 10.211 2.707a52.6 52.6 0 0 0 16.9.4 15.986 15.986 0 0 0 4.327 3.847 15.773 15.773 0 0 0 5.711 2.106 19.418 19.418 0 0 0 4.471.133 28.011 28.011 0 0 1 3.795-.19 9.72 9.72 0 0 1 1.749.331zm7.853 119.487a5.077 5.077 0 0 0-1.754.329 75.106 75.106 0 0 0-35.947-10.528v-.044h3.655v-22.385h-3.655v-27.929h-4.567v27.929h-3.655v22.384h3.655v.052a74.985 74.985 0 0 0-35.948 10.52 5.148 5.148 0 1 0 2.593 2.122 72.685 72.685 0 0 1 33.356-9.379v7.812a4.829 4.829 0 1 0 4.567 0V714.3a72.843 72.843 0 0 1 33.354 9.385 5.1 5.1 0 1 0 4.346-2.452z" class="cls-3" data-name="Path 370" transform="translate(68.112 22.956)"/>
        <g id="Group_50" class="cls-4" data-name="Group 50" transform="translate(990.516 514.956)">
            <g id="Group_41" data-name="Group 41" transform="translate(14.383)">
                <g id="Group_31" data-name="Group 31" transform="translate(58.352 197.86)">
                    <path id="Path_371" d="M966.818 619.01l3.355-6.192 5.814 4-3.968 5.771z" class="cls-5" data-name="Path 371" transform="translate(-966.818 -612.818)"/>
                </g>
                <g id="Group_32" data-name="Group 32" transform="translate(50.654 201.427)">
                    <path id="Path_372" d="M970.939 615.212s-.311 4.513 4.818 5.449c0 0 1.076 7 2.545 9.081s4.73 4.261 5.067 5.1-.875 2.144-.875 2.144l-9.105-3.97s-1.995-5.974-3.275-6.551a3.585 3.585 0 0 0-2.676.064l-5.321-3.659s3.531-6.068 4.628-6.731c1.192-.721 2.635-1.539 4.194-.927z" class="cls-5" data-name="Path 372" transform="translate(-962.117 -614.996)"/>
                </g>
                <path id="Path_373" d="M993.7 651.435c1.248.49 28.081-21.059 32.753-31.116 2.476-5.331 6.253-10.36 7.6-15.908.614-2.525 1.343-4.824 2.05-7.279a16.316 16.316 0 0 0 .707-3.86 13.277 13.277 0 0 0-1.014-4.8c-18.279-13.3-36.557-22.613-58.841-28.043-9.231.508-24.832 3.334-31.417 7.894s-5.958 8.39-7.085 13.447-.07 7.541 1.13 11.678a15.822 15.822 0 0 0 5.014 7.763c1.975 1.649 4.489 1.836 6.919 1.928 4.6.174 9.33-.77 13.82-1.607 9.829-1.833 19.5-3.7 29.413-4.486 2.343-.185 4.517.09 6.714-.042s4.076-.485 6.187-.675c1.6-.144 3.131-.359 4.586.339a2.1 2.1 0 0 1 1.114 1.164 2.009 2.009 0 0 1-.034.958 10.23 10.23 0 0 1-1.03 2.851c-.889 2.09-24.668 45.6-25.14 46.518-.009.019 5.984 3.053 6.554 3.276z" class="cls-5" data-name="Path 373" transform="translate(-926.858 -448.364)"/>
                <path id="Path_374" d="M943.621 543.313a33.757 33.757 0 0 0 3.644 9.145 11.925 11.925 0 0 0 3.005 3.719 24.68 24.68 0 0 0 7.433 3.516c3.793 1.292 7.656 2.388 11.493 3.539 6.164 1.852 9.317 2.535 10.211 2.707a52.6 52.6 0 0 0 16.9.4 15.983 15.983 0 0 0 4.327 3.847 15.77 15.77 0 0 0 5.711 2.106 19.42 19.42 0 0 0 4.471.133 28.029 28.029 0 0 1 3.794-.19c1.932.152 3.7 1.079 5.6 1.389 1.7.278 3.664-.418 3.757-2.417.016-.368-.08-.724-1.233-2.26-.9-1.2-1.712-2.155-2.293-2.815-2.525-.568-4.53-1.1-5.788-1.454-6.927-1.931-10.9-3.184-17.79-4.682a44.603 44.603 0 0 1-1.941-.388c-8.156-1.808-10.859-4.7-20.888-9.882-6.736-3.479-9.729-4.351-13.136-8.346a24.667 24.667 0 0 1-2.561-3.622z" class="cls-6" data-name="Path 374" transform="translate(-923.257 -462.82)"/>
                <path id="Path_375" d="M950.989 538.393c-1.051-.09-.773-.326-4.024-1.32-2.917-.891-4.373-1.39-4.916-1.9a4.967 4.967 0 0 1-1.422-2.676 6.569 6.569 0 0 1-5.755-10.651 12.355 12.355 0 0 1-.889-8.663 12.523 12.523 0 0 1 6.277-7.62 9.384 9.384 0 0 1 2.938-8.08 8.919 8.919 0 0 1 9.549-1.223 8.537 8.537 0 0 1 8.57-4.163 8.812 8.812 0 0 1 6.121 4.653 10.728 10.728 0 0 1 6.035 4.926c2.211 4.269.855 10.2-3.647 14.277a62.11 62.11 0 0 1-3.558 7.284 52.6 52.6 0 0 1-5.776 8.3c-3.426 3.95-6.2 7.14-9.503 6.856z" class="cls-7" data-name="Path 375" transform="translate(-929.68 -492)"/>
                <g id="Group_33" data-name="Group 33" transform="translate(92.706 211.821)">
                    <path id="Path_376" d="M988.539 628.347l-.744-7h7.056v7z" class="cls-8" data-name="Path 376" transform="translate(-987.795 -621.343)"/>
                </g>
                <g id="Group_34" data-name="Group 34" transform="translate(89.846 216.203)">
                    <path id="Path_377" d="M989.215 624.019s2.3 3.894 7.055 1.759c0 0 6.39 3.267 8.778 4.146s10.681 2.638 11.434 3.141.495 2.263.495 2.263h-17.208s-4.775-2.64-6.158-2.388-.87 2.388-.87 2.388h-6.459s-.527-7 0-8.169c.574-1.27 1.298-2.759 2.933-3.14z" class="cls-9" data-name="Path 377" transform="translate(-986.049 -624.019)"/>
                </g>
                <path id="Path_378" d="M932.135 581.036a18.948 18.948 0 0 0 .879 11.116c1.122 2.807 2.646 5.945 5.044 7.885 2.016 1.63 4.73 2.173 7.219 2.578a85.29 85.29 0 0 0 14.32.858c10.44-.08 20.787-.845 31.23-.239a53.949 53.949 0 0 0 7.417.154c2.33-.185 4.625-.658 6.947-.9a20.4 20.4 0 0 1 5.378-.062 1.908 1.908 0 0 1 1.6.875 3.147 3.147 0 0 1 .185 1.03c.124 1.243.2 2.493.308 3.736.242 2.73 7.551 32.907 7.967 38.044.36 4.453 3.275 16.377 3.275 16.377s0-1.638 3.275 0c2.047 1.023 4.913 0 4.913 0s5.854-55.117 5.134-60.679c-.327-2.532-.447-5.055-.62-7.6a13.18 13.18 0 0 0-.754-3.868 19.218 19.218 0 0 0-2.7-4.535L971.44 563.65s-25.441 0-31.91 4.744-7.395 12.642-7.395 12.642z" class="cls-10" data-name="Path 378" transform="translate(-930.862 -446.313)"/>
                <g id="Group_36" data-name="Group 36" transform="translate(0 46.544)">
                    <path id="Path_379" d="M944.225 522.213a24.8 24.8 0 0 0-2.588 5.229 109.528 109.528 0 0 0-2.522 6.777 109.039 109.039 0 0 0-3.8 14.1c-2 10.262-2.4 20.726-3.041 31.135-.3 4.906-.655 9.806-.994 14.709a23.151 23.151 0 0 0 1.507 11.081c.506 1.128 1.476 2.949 2.989 2.442a5.317 5.317 0 0 0 1.931-1.531 29.226 29.226 0 0 1 4.04-3.986c3.511-2.525 8.115-3.619 12.229-4.734 4.782-1.3 9.665-1.987 14.467-3.149a27.546 27.546 0 0 0 3-.917c.84-7.936 1.652-15.874 2.7-23.771a58.794 58.794 0 0 0-1.561-24.339 45.731 45.731 0 0 0-5.175-11.49c-2.357-3.709-5.652-7.047-8.365-10.543l-13.008-2.8z" class="cls-1" data-name="Path 379" transform="translate(-931.186 -520.421)"/>
                    <g id="Group_35" class="cls-11" data-name="Group 35">
                        <path id="Path_380" d="M938.457 535.257c.048 4.82.146 4.823.368 9.638.239 5.18.1 10.5 1.546 15.528 1.341 4.661 4.464 10.108 9.919 10.145 1.349.008 6.511-.522 6.78-1.916.084-.436-.711-1.651-.884-2.055l-9.492-22.1a7.694 7.694 0 0 0-.4-.938z" class="cls-12" data-name="Path 380" transform="translate(-926.55 -510.961)"/>
                    </g>
                </g>
                <g id="Group_38" data-name="Group 38" transform="translate(25.467 98.817)">
                    <path id="Path_382" d="M946.737 556.508a33.831 33.831 0 0 0 2.784 9.443 11.933 11.933 0 0 0 2.648 3.981 24.717 24.717 0 0 0 7.076 4.189c8.626 3.86 5.565 2.735 11.117 4.585a262.481 262.481 0 0 0 27.709 7.135c3.98 4.187 7.194 5.078 8.441 5.324a27.466 27.466 0 0 0 4.44.545 27.987 27.987 0 0 1 3.8.162c1.911.331 3.582 1.415 5.447 1.9 1.669.432 3.688-.077 3.965-2.06a2.878 2.878 0 0 0-1.018-2.363 21.091 21.091 0 0 0-6.945-4.636 353.79 353.79 0 0 0-15.25-4.729 176.257 176.257 0 0 0-23.651-13.722c-2.972-1.377-9.03-3.845-13.173-10.08a30.177 30.177 0 0 1-2.216-3.844z" class="cls-2" data-name="Path 382" transform="translate(-946.737 -552.34)"/>
                    <g id="Group_37" class="cls-13" data-name="Group 37">
                        <path id="Path_383" d="M945.564 561.922s7.546-3.665 10.134-3.809 12.145-1.006 12.145-1.006l-4.959-6.757L946 556.136z" class="cls-6" data-name="Path 383" transform="translate(-947.485 -553.609)"/>
                    </g>
                </g>
                <g id="Group_40" data-name="Group 40" transform="translate(14.578 16.262)">
                    <path id="Path_385" d="M957.279 536.586a9.7 9.7 0 0 1 2.56-3.622c1.454-1.271 4.939-1.646 6.742-2.2 1.174-.362 2.273-.724 2.36-2.088.007-.121 1.292-13.887.481-15.166-.712-1.125-.817-6.58-1.084-7.274a7.6 7.6 0 0 1-.4-2.488c-.026-.576-.1-1.14-.174-1.713-.978.516-.657-.123-1.716-.1-1.205.025-1.526 1.122-1.875 2.116a10.08 10.08 0 0 1-2.434 4.353c-1.14 1.107-2.181 2.018-2.5 3.637-.1.537.364 6.362-1.772 4.928-1.061-.712-.973-3.169-1.158-4.176a5.452 5.452 0 0 0-1.988-3.089c-1.279-1.253-1.525-3.637-3.907-3-3.146.842-1.628 4.585-1.1 6.6a7.894 7.894 0 0 0 1.815 3.842 1.4 1.4 0 1 1 2.43.4c-.6 1.138.1 2.229.125 3.208.044 1.628-1.757 2.918-2.6 3.521a7.864 7.864 0 0 1-5.378 1.33 7.171 7.171 0 0 1-5.627 2.994z" class="cls-2" data-name="Path 385" transform="translate(-940.088 -501.93)"/>
                    <g id="Group_39" class="cls-14" data-name="Group 39">
                        <path id="Path_386" d="M960.716 521.15c.5.7-8.161.554-12.1-4.635 1.385 3.881 8.624 10.278 8.624 10.278z" class="cls-6" data-name="Path 386" transform="translate(-934.651 -492.629)"/>
                    </g>
                </g>
                <path id="Path_388" d="M937.608 524.591c-1.251-.354 1.1-3.636 1.394-4.048a5.3 5.3 0 0 1 3.834-2.417 11.9 11.9 0 0 1 6.054 1.225 52.373 52.373 0 0 1 9.287 6.215c2.262 1.749 4.8 3.668 6.308 6.148a7.211 7.211 0 0 1 .825 1.913 10.138 10.138 0 0 1 .254 1.449 6.414 6.414 0 0 1 .2 2.065c-.172.645-.5.2-.855-.191-1.243-1.354-2.244-2.94-3.372-4.387a26.022 26.022 0 0 0-7.651-6.515 16.869 16.869 0 0 0-7.17-2.447c-2.886-.21-5.557.837-8.391 1.015a2.629 2.629 0 0 1-.717-.025z" class="cls-12" data-name="Path 388" transform="translate(-927.324 -475.367)"/>
                <path id="Path_389" d="M938.428 538.183c2.213 7.921 4.073 15.948 6.362 23.844.775 2.669 1.582 5.573 3.328 7.8a6.954 6.954 0 0 0 2.954 2 6 6 0 0 0 1.413.552c1.528.319 2.622-.516 4.312-1.294 2.989-1.372 3.187-.421 6.469-1.887 1.782-.794 2.134-1.259 3.536-1.5.758-.128 1.435-.126 1.747-.6.431-.657-.147-1.733-.295-2.021-.254-.5.464.169-1.687-10.265-1.615-7.832-2.655-15.869-5.444-23.4a57.93 57.93 0 0 0-1.15-2.846z" class="cls-1" data-name="Path 389" transform="translate(-926.569 -468.684)"/>
                <path id="Path_390" d="M949.088 510.483c-.277-1.382-1.4-.559-1.7-1.754s.9-.992.7-2.027-2.4-.775-1.554 2.671 2.788 2.284 2.554 1.11z" class="cls-6" data-name="Path 390" transform="translate(-921.52 -482.965)"/>
            </g>
            <g id="Group_45" data-name="Group 45" transform="translate(77.231 109.748)">
                <g id="Group_42" data-name="Group 42" transform="translate(1.098 2.836)">
                    <path id="Rectangle_6" d="M0 0h2.118v107.445H0z" class="cls-15" data-name="Rectangle 6" transform="rotate(4.64 4.346 107.272)"/>
                </g>
                <g id="Group_43" data-name="Group 43">
                    <path id="Rectangle_7" d="M0 0h97.337v5.947H0z" class="cls-15" data-name="Rectangle 7"/>
                </g>
                <g id="Group_44" data-name="Group 44" transform="translate(84.663 2.836)">
                    <path id="Rectangle_8" d="M0 0h2.118v107.445H0z" class="cls-15" data-name="Rectangle 8" transform="rotate(175.36 3.232 53.765)"/>
                </g>
            </g>
            <g id="Group_46" data-name="Group 46" transform="translate(0 59.415)">
                <rect id="Rectangle_9" width="58.731" height="11.217" class="cls-16" data-name="Rectangle 9" rx="2.029" transform="translate(19.428 96.068)"/>
                <path id="Path_391" d="M925.768 588.813c0-9.546.246-18.969-.118-28.471a102.509 102.509 0 0 1 .724-18.858c.4-2.743 2.242-15.271 7.682-12.91 1.05.455 1.52 1.942 1.7 2.643l-.722 57.595c0 2.5-1.677 4.535-3.744 4.535h-1.774c-2.071.001-3.748-2.03-3.748-4.534z" class="cls-17" data-name="Path 391" transform="translate(-920.413 -528.28)"/>
                <path id="Path_392" d="M925.526 545.511v60.268a18.306 18.306 0 0 0 18.3 18.3h45.088" class="cls-18" data-name="Path 392" transform="translate(-920.413 -517.293)"/>
                <path id="Rectangle_10" d="M0 0h4.568v63.474H0z" class="cls-16" data-name="Rectangle 10" transform="translate(42.814 109.265)"/>
                <path id="Rectangle_11" d="M0 0h11.877v22.384H0z" class="cls-19" data-name="Rectangle 11" transform="translate(39.16 137.194)"/>
                <path id="Path_393" d="M1005.5 641.082a72.122 72.122 0 0 0-79.97 0v-3.709a74.424 74.424 0 0 1 79.97 0z" class="cls-19" data-name="Path 393" transform="translate(-920.413 -466.147)"/>
                <path id="Path_394" d="M932.631 637.091a5.114 5.114 0 1 0-5.114 5.113 5.114 5.114 0 0 0 5.114-5.113z" class="cls-19" data-name="Path 394" transform="translate(-922.404 -462.156)"/>
                <path id="Path_395" d="M981.463 637.091a5.114 5.114 0 1 0-5.115 5.113 5.114 5.114 0 0 0 5.115-5.113z" class="cls-19" data-name="Path 395" transform="translate(-891.266 -462.156)"/>
                <path id="Path_396" d="M956.652 636.98a4.829 4.829 0 1 0-4.83 4.83 4.829 4.829 0 0 0 4.83-4.83z" class="cls-19" data-name="Path 396" transform="translate(-906.724 -462.046)"/>
            </g>
            <g id="Group_49" data-name="Group 49" transform="translate(123.801 38.128)">
                <g id="Group_47" data-name="Group 47" transform="translate(7.713 3.174)">
                    <path id="Rectangle_12" d="M0 0h1.71v48.436H0z" class="cls-20" data-name="Rectangle 12" transform="rotate(4.07 1.719 48.333)"/>
                </g>
                <path id="Rectangle_13" d="M0 0h1.223v14.871H0z" class="cls-21" data-name="Rectangle 13" transform="rotate(4.07 -788.504 166.066)"/>
                <path id="Rectangle_14" d="M0 0h1.223v14.871H0z" class="cls-21" data-name="Rectangle 14" transform="rotate(90 -27.848 42.718)"/>
                <g id="Group_48" data-name="Group 48" transform="translate(8.515)">
                    <path id="Rectangle_15" d="M0 0h3.75v56.756H0z" class="cls-22" data-name="Rectangle 15" transform="rotate(4.07 2.015 56.675)"/>
                </g>
            </g>
        </g>
    </g>
</svg>