<svg id="Layer_1" data-name="Layer 1" xmlns="http://www.w3.org/2000/svg" xmlns:xlink="http://www.w3.org/1999/xlink" viewBox="0 0 469.6 301.47"><defs><style>.cls-1,.cls-41{fill:none;}.cls-2{fill:#ffb389;}.cls-3{fill:#202a58;}.cls-4{fill:#8faaff;}.cls-5{fill:#2b2b2b;}.cls-6{fill:#8e8e8e;}.cls-7{fill:#1e2750;}.cls-8{fill:#a0aedf;}.cls-9{fill:#fff;}.cls-10{opacity:0.7;}.cls-11{fill:#ffb288;}.cls-12{fill:#ff9c81;}.cls-13{fill:#ff9c80;}.cls-14{fill:#282828;}.cls-15{fill:#c5f1f3;}.cls-16{fill:#202a57;}.cls-17{fill:#525290;}.cls-18{fill:#2c3964;}.cls-19{fill:#ff9a80;}.cls-20{fill:#37474f;}.cls-21{fill:#fc987e;}.cls-22{fill:#45579b;}.cls-23{fill:#455a64;}.cls-24{fill:#324284;}.cls-25{fill:#c7ccdc;}.cls-26{fill:#dedfe0;}.cls-27{fill:#c9c9c9;}.cls-28{fill:#b1b182;}.cls-29{fill:#212b57;}.cls-30{fill:#19140e;}.cls-31,.cls-38{fill:#ffbba6;}.cls-32{fill:#595a5b;}.cls-33{fill:#3a3a3a;}.cls-34{fill:#f9c170;}.cls-35{clip-path:url(#clip-path);}.cls-36{fill:#e0ac68;}.cls-37{clip-path:url(#clip-path-2);}.cls-38{opacity:0.5;isolation:isolate;}.cls-39{clip-path:url(#clip-path-3);}.cls-40{fill:#346ec1;}.cls-41{stroke:#dedfe0;stroke-miterlimit:10;stroke-width:3.44px;}.cls-42{fill:#034c8a;stroke:#034c8a;stroke-linecap:round;stroke-linejoin:round;stroke-width:0.97px;}.cls-43{fill:#bfbfbf;}</style><clipPath id="clip-path" transform="translate(0.02 0)"><path class="cls-1" d="M439.1,77a26.72,26.72,0,0,1,2.83,5.72q1.5,3.66,2.76,7.41a118.94,118.94,0,0,1,4.16,15.42c2.18,11.23,2.62,22.67,3.33,34.06.33,5.36.71,10.72,1.08,16.09a25.18,25.18,0,0,1-1.65,12.12c-.55,1.23-1.61,3.22-3.26,2.67a5.88,5.88,0,0,1-2.12-1.68,32.52,32.52,0,0,0-4.42-4.36c-3.84-2.76-8.87-4-13.37-5.18-5.23-1.41-10.57-2.17-15.83-3.44a29.47,29.47,0,0,1-3.28-1c-.92-8.68-1.8-17.36-2.95-26a64.32,64.32,0,0,1,1.7-26.62,50.07,50.07,0,0,1,5.66-12.57c2.58-4.06,6.18-7.71,9.15-11.53L437.12,75Z"/></clipPath><clipPath id="clip-path-2" transform="translate(0.02 0)"><path class="cls-1" d="M425.5,136.73a36.78,36.78,0,0,1-3,10.33,13.16,13.16,0,0,1-2.9,4.36,27.39,27.39,0,0,1-7.74,4.58c-9.44,4.22-6.09,3-12.16,5a287.29,287.29,0,0,1-30.31,7.81c-4.35,4.58-7.87,5.55-9.23,5.82a30.45,30.45,0,0,1-4.86.6,28.82,28.82,0,0,0-4.15.18c-2.09.36-3.92,1.55-6,2.08-1.82.47-4-.09-4.33-2.26a3.12,3.12,0,0,1,1.11-2.58,23.08,23.08,0,0,1,7.6-5.07q8.28-2.78,16.68-5.17a191.54,191.54,0,0,1,25.87-15c3.25-1.51,9.88-4.21,14.41-11a32.43,32.43,0,0,0,2.42-4.2Z"/></clipPath><clipPath id="clip-path-3" transform="translate(0.02 0)"><path class="cls-1" d="M418.61,79.78a10.53,10.53,0,0,0-2.8-4c-1.59-1.39-5.4-1.8-7.37-2.41-1.29-.4-2.49-.79-2.58-2.28,0-.13-1.42-15.19-.53-16.59.78-1.23.89-7.2,1.19-8a8.37,8.37,0,0,0,.43-2.72c0-.63.11-1.25.19-1.87,1.07.56.72-.14,1.88-.11,1.32,0,1.67,1.22,2.05,2.31A11,11,0,0,0,413.73,49c1.24,1.21,2.38,2.21,2.73,4,.11.59-.4,7,1.94,5.39,1.16-.78,1.06-3.47,1.26-4.57.32-1.34,2-8.25,6.45-6.66,3.44.92,1.78,5,1.2,7.22-.36,1.4-.86,3.19-2,4.2a1.53,1.53,0,1,0-2.9-1,1.52,1.52,0,0,0,.24,1.44c.65,1.24-.11,2.44-.14,3.51,0,1.78,1.93,3.19,2.85,3.85a8.64,8.64,0,0,0,5.88,1.46A7.83,7.83,0,0,0,437.41,71Z"/></clipPath></defs><title>image-layer5</title><g id="Group_86" data-name="Group 86"><path id="Path_425" data-name="Path 425" class="cls-2" d="M150.16,294.72c-3.59.38-7.15-.75-10.59-1.86a15.63,15.63,0,0,1-2.88-1.16,12.53,12.53,0,0,1-3.53-3.39,3.81,3.81,0,0,1-1-2.27,1.59,1.59,0,0,1,1-1.49c.58-.13,1.17.4,1.66.69a39.57,39.57,0,0,1,3.7,2.46,76.35,76.35,0,0,0,7.17,5.1A18.44,18.44,0,0,0,150.16,294.72Z" transform="translate(0.02 0)"/></g><g id="Group_87" data-name="Group 87"><path id="Path_426" data-name="Path 426" class="cls-2" d="M130.2,287.32c-.08.24,6.08,1.21,6.08,1.21L133.48,273,125.8,277Z" transform="translate(0.02 0)"/></g><g id="Group_95" data-name="Group 95"><path id="Path_434" data-name="Path 434" class="cls-3" d="M128.31,285c-.32,0-.54.17-1,.58a11.21,11.21,0,0,0-2.59,3.26c-.64,1.34,0,2.87.11,4.29a25,25,0,0,1-.17,5.54,9.12,9.12,0,0,0,3.64.26c-.71-2.45,1.25-5,2.37-7a56.5,56.5,0,0,1,8.47,4.54,7.21,7.21,0,0,0,3.1,1.55,6.76,6.76,0,0,0,1.42-.06l6.82-.79c.69-.08,3.94-1.7,2.15-2.19-3.63-1-7.39-1.47-10.94-2.74a51.57,51.57,0,0,1-6.4-3.19c-1.45-.76-2.87-1.56-4.27-2.42-.72-.44-1.41-.94-2.14-1.36a1.6,1.6,0,0,0-.59-.24Z" transform="translate(0.02 0)"/></g><g id="Group_3648" data-name="Group 3648"><g id="Group_108" data-name="Group 108"><g id="Group_63" data-name="Group 63"><path id="Path_407" data-name="Path 407" class="cls-4" d="M126.58,11.15" transform="translate(0.02 0)"/></g><g id="Group_64" data-name="Group 64"><ellipse id="Ellipse_2" data-name="Ellipse 2" class="cls-5" cx="26.13" cy="299.05" rx="2.19" ry="2.42"/></g><g id="Group_65" data-name="Group 65"><ellipse id="Ellipse_3" data-name="Ellipse 3" class="cls-5" cx="34.32" cy="299.05" rx="2.19" ry="2.42"/></g><g id="Group_66" data-name="Group 66"><ellipse id="Ellipse_4" data-name="Ellipse 4" class="cls-5" cx="45.63" cy="299.05" rx="2.19" ry="2.42"/></g><g id="Group_67" data-name="Group 67"><ellipse id="Ellipse_5" data-name="Ellipse 5" class="cls-5" cx="54.48" cy="299.05" rx="2.19" ry="2.42"/></g><g id="Group_68" data-name="Group 68"><path id="Path_408" data-name="Path 408" class="cls-6" d="M14,200.55c-5.53,0-9.53-1.6-11.89-4.75A12.28,12.28,0,0,1,.53,185.24c2-6.66,10.17-37.08,10.25-37.39a1.15,1.15,0,0,1,2.22.6c-.09.31-8.3,30.76-10.26,37.44A9.94,9.94,0,0,0,4,194.43c1.9,2.54,5.28,3.83,10.05,3.83a1.15,1.15,0,0,1,0,2.29Z" transform="translate(0.02 0)"/></g><g id="Group_69" data-name="Group 69"><path id="Path_409" data-name="Path 409" class="cls-5" d="M13.42,108c.08.81.57,21.64-2.87,33.53-.84,2.92-4.8,13.25-7.43,20a4.54,4.54,0,0,0,2.56,5.88,4.44,4.44,0,0,0,2.47.24,12.38,12.38,0,0,0,9-6.5C22.87,150,38,116.74,31.37,110.24,23.84,102.82,13.42,108,13.42,108Z" transform="translate(0.02 0)"/></g><g id="Group_70" data-name="Group 70"><path id="Rectangle_17" data-name="Rectangle 17" class="cls-7" d="M127.51,135.46l2.77.22L118.86,276.41l-2.77-.22Z" transform="translate(0.02 0)"/></g><g id="Group_71" data-name="Group 71"><path id="Path_410" data-name="Path 410" class="cls-8" d="M211.34,132.14H189.4v-2.29h21.94c8.18,0,9.56-7.95,10.66-14.33l.26-1.48a1.18,1.18,0,0,1,1.34-.93,1.15,1.15,0,0,1,.92,1.33h0l-.26,1.46c-1.11,6.46-2.8,16.23-12.92,16.23Z" transform="translate(0.02 0)"/></g><path id="Path_411" data-name="Path 411" class="cls-9" d="M220.58,101.35c-3.45-.26-25.32-4.64-27.05,4.25-43.31-10.65-56.73-25.36-75-42.53a49.18,49.18,0,0,0-.44-14.88c0-.24,2.37-5.92,4.22-10.3,2,1.85,4,3.07,5.72,2.61,4.72-1.24,11.29-14.54,11.68-20.16a6.13,6.13,0,0,0,2.25-.65c7.55-2.39,10.07-6.05,6.76-10.45s-13-5.6-17.77-6.13-5.3-3.58-8.88-3S115,3.11,114.74,7.62s0,17.3,0,17.3l0,1.47-6.62,10.67s-5.57-.8-18.56.8S55.38,65,55.11,65.57l-6.76,3.84,28.29,53.22s16.66-6.82,31.5-30.28l.09-.15c5.2,17.34,11.2,37.25,11.2,37.25a3.87,3.87,0,0,0,3.48,2.52c2.91.4,22.67,0,22.67,0s-4.67-6.89-12.61-6.5-8.87-.25-8.87-.25l-3.71-34.55A112.7,112.7,0,0,0,135,98.05c19.65,8,61.28,19.09,65.52,15.51,1.86-1.24,3.86-2.65,6.63-7.82,0,0,17.48-3.29,13.4-4.39ZM79.8,132.14l-51,6s-11.31,10.16-9.19,21.27a119.86,119.86,0,0,1,1.16,42.06c-2.6,17.49,0,76.1,0,76.1H21.8l.37,3.5c-.12-.16-.19-.27-.19-.27-1.63.38-2.36,1.87-2.93,3.14s0,8.17,0,8.17h6.46s-.51-2.14.87-2.39,6.16,2.39,6.16,2.39H49.75s.26-1.76-.5-2.26-9-2.26-11.43-3.14S29,282.53,29,282.53l-.3.12v-5.1h0l24.11-91.69c5.2-3.08,17-.48,15.83,6.38s-20.34,78.93-20.34,78.93L46,276a2.75,2.75,0,0,1-.22-.26s-5.65,3.77-5.53,5.53,5.53,5,5.53,5l1.76-1.14,6,6.92h15s1.88-1.26,0-2.14l-12.92-6-2.31-6.05L55.94,274S92,227.92,100.79,194.84c4.38-16.46-20.28-63.11-21-62.7Z" transform="translate(0.02 0)"/><g id="Group_84" data-name="Group 84" class="cls-10"><g id="Group_72" data-name="Group 72"><path id="Path_412" data-name="Path 412" class="cls-11" d="M48.35,271.16l-2.74,5.59,6.28,3.14,4-5.9Z" transform="translate(0.02 0)"/></g><g id="Group_73" data-name="Group 73"><path id="Path_413" data-name="Path 413" class="cls-11" d="M22.42,283.39l-.74-7h7.05v7Z" transform="translate(0.02 0)"/></g><g id="Group_74" data-name="Group 74"><path id="Path_414" data-name="Path 414" class="cls-12" d="M100.79,67c-.15.1,18.64,62.43,18.64,62.43a3.89,3.89,0,0,0,3.48,2.51c2.91.4,22.67,0,22.67,0s-4.67-6.89-12.61-6.5-8.87-.25-8.87-.25l-7.34-68.27Z" transform="translate(0.02 0)"/></g><g id="Group_75" data-name="Group 75"><path id="Path_415" data-name="Path 415" class="cls-13" d="M115.68,24.92l-7.53,12.13s9.94,11.54,9.94,11.14,6.37-15.38,6.37-15.38Z" transform="translate(0.02 0)"/></g><g id="Group_76" data-name="Group 76"><path id="Path_416" data-name="Path 416" class="cls-14" d="M124.56,13.38s9.84,8.69,17.4,6.3,10.07-6,6.76-10.45-13-5.59-17.77-6.12-5.3-3.58-8.88-3S115,3.11,114.75,7.62s0,17.3,0,17.3l0,2.32,3.38-4.9.22-4.22,2.1.24Z" transform="translate(0.02 0)"/></g><g id="Group_77" data-name="Group 77"><path id="Path_417" data-name="Path 417" class="cls-2" d="M120.48,18.36s-3.71-3.18-4.64-.93,2.32,4.91,2.32,4.91-3.78,3.18-3.38,4.9S123,41.82,128,40.49s12.2-16.44,11.67-21.21S129.76,7.88,128,9.47s-7.55,8.89-7.55,8.89Z" transform="translate(0.02 0)"/></g><g id="Group_78" data-name="Group 78"><path id="Path_418" data-name="Path 418" class="cls-14" d="M122.34,11.06c.13.4,12.7,12.4,19.62,8.62s5.7-8.62,5.7-8.62L124.32,5.48Z" transform="translate(0.02 0)"/></g><g id="Group_79" data-name="Group 79"><path id="Path_419" data-name="Path 419" class="cls-15" d="M55.12,65.56c.26-.54,21.47-26.12,34.47-27.71s18.56-.8,18.56-.8l9.94,11.14s4.88,20.72-9.94,44.15-31.5,30.27-31.5,30.27L48.36,69.4Z" transform="translate(0.02 0)"/></g><g id="Group_80" data-name="Group 80"><path id="Path_420" data-name="Path 420" class="cls-2" d="M114.54,59.35,94.63,72.45S115.39,90.09,135,98s61.27,19.09,65.52,15.51c1.85-1.24,3.85-2.65,6.63-7.82,0,0,17.47-3.28,13.39-4.37-3.45-.27-25.33-4.65-27.05,4.24-46.4-11.4-58.49-27.48-79-46.25Z" transform="translate(0.02 0)"/></g><g id="Group_81" data-name="Group 81"><path id="Path_421" data-name="Path 421" class="cls-16" d="M79.8,132.14c.71-.41,25.37,46.24,21,62.69C92,227.91,55.93,274,55.93,274l-7.58-2.83s19.16-72.08,20.34-78.94-10.63-9.45-15.83-6.38l-24.11,91.7h-8s-2.6-58.61,0-76.1c2.1-14,4.37-22.92,1.51-36.76-2.13-11.11,6.52-26.58,6.52-26.58Z" transform="translate(0.02 0)"/></g><g id="Group_82" data-name="Group 82"><path id="Path_422" data-name="Path 422" class="cls-17" d="M45.76,275.74s-5.66,3.77-5.53,5.53,5.53,5,5.53,5l1.76-1.14,6,6.92h15s1.89-1.26,0-2.14l-12.91-6-2.44-6.37C50.87,279.24,47.07,277.76,45.76,275.74Z" transform="translate(0.02 0)"/></g><g id="Group_83" data-name="Group 83"><path id="Path_423" data-name="Path 423" class="cls-17" d="M22,280.77s2.3,3.89,7.06,1.76c0,0,6.39,3.26,8.78,4.14s10.68,2.64,11.43,3.14.49,2.27.49,2.27H32.54s-4.78-2.64-6.16-2.39-.87,2.39-.87,2.39H19.05s-.53-7,0-8.17,1.3-2.76,2.93-3.14Z" transform="translate(0.02 0)"/></g></g><g id="Group_85" data-name="Group 85"><path id="Path_424" data-name="Path 424" class="cls-5" d="M60.74,204.84h-41a7.83,7.83,0,1,1,0-15.65h41a7.83,7.83,0,0,1,0,15.65Z" transform="translate(0.02 0)"/></g><g id="Group_86-2" data-name="Group 86"><path id="Path_425-2" data-name="Path 425" class="cls-2" d="M76.64,292.12c-3.51-.83-6.5-3.08-9.37-5.27a15.62,15.62,0,0,1-2.33-2.05,12.53,12.53,0,0,1-2.21-4.37,3.91,3.91,0,0,1-.22-2.48A1.61,1.61,0,0,1,64,276.88c.59.06,1,.76,1.34,1.2A38.27,38.27,0,0,1,68,281.63,78.31,78.31,0,0,0,73,288.82,18.81,18.81,0,0,0,76.64,292.12Z" transform="translate(0.02 0)"/></g><g id="Group_87-2" data-name="Group 87"><path id="Path_426-2" data-name="Path 426" class="cls-2" d="M59.17,277.14c-.2.16,4.27,4.5,4.27,4.5l6.7-14.33-8.62-1.11Z" transform="translate(0.02 0)"/></g><g id="Group_88" data-name="Group 88"><path id="Path_427" data-name="Path 427" class="cls-18" d="M68.91,271.34s47-67.35,45.34-76.4-22.48-29.4-41.12-36.24c0,0,4.43,46.61-2.7,72L59.34,270.09Z" transform="translate(0.02 0)"/></g><g id="Group_89" data-name="Group 89"><path id="Path_428" data-name="Path 428" class="cls-19" d="M70.2,95.81a2.26,2.26,0,0,1,.86.82c1.11,1.83,2,3.85,3,5.76q3.54,6.78,7.11,13.57l.85,1.62s49.6-1.19,51.29,0,8.66,8.16,8.66,8.16-2.24.92-3.38,0c-6.3-5.06-16.42-2-16.42-2l-23.51,2.8L82.5,128.46l-6.21.75c-1.14.14-2.18.59-3.27.77-1.81.29-2.74-1.5-3.38-3A145.59,145.59,0,0,1,61,99.69a1.16,1.16,0,0,1,.66-1.56C63.46,97,67.94,94.6,70.2,95.81Z" transform="translate(0.02 0)"/></g><g id="Group_90" data-name="Group 90"><path id="Path_429" data-name="Path 429" class="cls-20" d="M97.7,117.27c-8.76.14-15.69.31-15.69.31L81.15,116l-7.1-13.57c-1-1.9-1.88-3.93-3-5.76a2.16,2.16,0,0,0-.85-.82c-2.26-1.21-6.74,1.16-8.6,2.32a1.57,1.57,0,0,0-.67.68,1.64,1.64,0,0,0,0,.88A145.13,145.13,0,0,0,69.63,127c.64,1.48,1.58,3.27,3.39,3,1.09-.18,2.13-.63,3.27-.77l6.21-.75,16.15-1.94.19,0q-.78-4.59-1.14-9.23Z" transform="translate(0.02 0)"/></g><g id="Group_91" data-name="Group 91"><path id="Path_430" data-name="Path 430" class="cls-21" d="M52.51,55.54c.12.28,0,12.95,0,12.95s1.72,5.85,5.88,5.29a10.24,10.24,0,0,0,6.07-2.7V58.15Z" transform="translate(0.02 0)"/></g><g id="Group_92" data-name="Group 92"><path id="Path_431" data-name="Path 431" class="cls-2" d="M37.92,112.74c0-.16,24.63-6.79,24.63-6.79l10.23,22.48s14.55-3,28-5.06c11.49-1.77,22.46-3.34,23.7-3.14,2.7.45,8.55,1.58,9.56,2.81s1.58,9.34,1.58,9.34-1-1.35-2.25-3.37-2,2-5.29.9a52.37,52.37,0,0,1-6.75-3S75.15,151.05,64.46,148s-26.54-35.28-26.54-35.28Z" transform="translate(0.02 0)"/></g><g id="Group_93" data-name="Group 93"><path id="Path_432" data-name="Path 432" class="cls-22" d="M18.74,161.48s-5.83,13.6,12.17,22.77,56,21.42,61.36,22.32c0,0,25.92,58.4,30.85,69.11,4.06,8.82,4.23,10.39,4.23,10.39l10.26-1.22s-14.75-72.34-19.43-83.5S84.93,163.56,73.12,158.7Z" transform="translate(0.02 0)"/></g><g id="Group_94" data-name="Group 94"><path id="Path_433" data-name="Path 433" class="cls-23" d="M73.89,158.89c0-3.22-1.17-6.88-1.77-10.06l-.24-1.23c8.44-1.81,20.93-7.06,31.27-11.83a58.73,58.73,0,0,1-2.33-12.4q-13.86,2.14-27.7,4.4l-5.93-12.24a9.3,9.3,0,0,1,.38-2.23c.8-2.6,2.41-5,3.29-7.61,2.08-6.32,4.07-13.1,2.3-19.52-1.45-5.24-5.21-9.46-8.18-14a4,4,0,0,1-.4-1.06c-4.12,1.51-8.95-1.78-12.08-4.3-.51-.41-4.19,1.58-4.78,1.87a31.51,31.51,0,0,0-4.46,2.76,36.74,36.74,0,0,0-7.53,7.36c-2,2.69-3.08,7-3.94,10.17-1.06,4-3.09,7.53-3.23,11.66-.16,4.74,1.68,10.08,1.46,14.82a68.52,68.52,0,0,1-3.8,19c-6.61,16.9-11.1,31.5-11.1,31.5S10.32,187,29.48,192.26c1.54.78,27,4.35,36.15,8.71,1.31-.61,5.22-4.79,10.45-12.92,7.4-9.87,12.63-14.08,18-17-7-6-16.21-10.28-20.7-12.2.17,0,.35,0,.52.08Z" transform="translate(0.02 0)"/></g><g id="Group_95-2" data-name="Group 95"><path id="Path_434-2" data-name="Path 434" class="cls-3" d="M59.24,275.74c-.29-.15-.57,0-1.11.22a11.39,11.39,0,0,0-3.53,2.22c-1.05,1.05-1,2.71-1.31,4.09a26,26,0,0,1-2,5.17,9.24,9.24,0,0,0,3.34,1.45c.14-2.55,2.85-4.34,4.57-5.85a56.48,56.48,0,0,1,6.48,7.09,7.12,7.12,0,0,0,2.42,2.49,6.4,6.4,0,0,0,1.35.42l6.7,1.51c.68.16,4.29-.29,2.75-1.35-3.09-2.14-6.48-3.84-9.4-6.21a51.52,51.52,0,0,1-5-5.14q-1.67-1.78-3.23-3.69c-.53-.66-1-1.36-1.57-2a1.58,1.58,0,0,0-.47-.42Z" transform="translate(0.02 0)"/></g><g id="Group_96" data-name="Group 96"><path id="Path_435" data-name="Path 435" class="cls-24" d="M56.74,36.05a14.52,14.52,0,0,1-2,13.54c-1.45,1.91-3.23,3.45-4.52,5.26a7.23,7.23,0,0,0-1.58,5.9c.44,2.07,1.7,3.92,3,5.91a21.32,21.32,0,0,1,1.67,3.26,15.28,15.28,0,0,1,.82,3.66,12.08,12.08,0,0,1-1.53,7.23,8.15,8.15,0,0,1-5.86,4l-.06-.21a8.4,8.4,0,0,0,4.58-4.53A11.94,11.94,0,0,0,52,73.81a16.25,16.25,0,0,0-2.2-6.07c-1.08-2-2.41-4.14-2.8-6.69a7.63,7.63,0,0,1,.32-3.82A11,11,0,0,1,49.12,54c1.52-1.91,3.36-3.35,4.79-5.08a13.85,13.85,0,0,0,2.62-12.8Z" transform="translate(0.02 0)"/></g><g id="Group_97" data-name="Group 97"><path id="Rectangle_18" data-name="Rectangle 18" class="cls-7" d="M114.64,131.73H242.55v7.82H114.64Z" transform="translate(0.02 0)"/></g><g id="Group_98" data-name="Group 98"><path id="Rectangle_19" data-name="Rectangle 19" class="cls-7" d="M240.09,276.19l-2.77.22L225.9,135.69l2.77-.23Z" transform="translate(0.02 0)"/></g><g id="Group_99" data-name="Group 99"><path id="Rectangle_20" data-name="Rectangle 20" class="cls-25" d="M142,129.52h15.95v2.62H142Z" transform="translate(0.02 0)"/></g><g id="Group_100" data-name="Group 100"><path id="Rectangle_21" data-name="Rectangle 21" class="cls-8" d="M229.75,44.25l2.26.34-9.71,64.15L220,108.4Z" transform="translate(0.02 0)"/></g><g id="Group_101" data-name="Group 101"><path id="Rectangle_22" data-name="Rectangle 22" class="cls-25" d="M232,40.16l5,.75-11.4,75.17-5-.75Z" transform="translate(0.02 0)"/></g><g id="Group_102" data-name="Group 102"><path id="Path_436" data-name="Path 436" class="cls-15" d="M166.9,78.91" transform="translate(0.02 0)"/></g><g id="Group_103" data-name="Group 103"><rect id="Rectangle_23" data-name="Rectangle 23" class="cls-26" x="25.23" y="289.62" width="30.38" height="5.87" rx="1.18"/></g><g id="Group_104" data-name="Group 104"><path id="Rectangle_24" data-name="Rectangle 24" class="cls-27" d="M37.81,203.28h4.83v87.45H37.81Z" transform="translate(0.02 0)"/></g><g id="Group_105" data-name="Group 105"><path id="Path_437" data-name="Path 437" class="cls-28" d="M79.13,28.23c.58,3.48-1.32,3.14-1.36,3.29-.41,3.12-2,4.76-5.24,4.94s-6.34.33-9.47-.49c-1.9-.5-2.31-2.07-3.63-.82-.56.54-.92,1.32-1.68,1.64s-1.6-.13-2.29.72A2.72,2.72,0,0,0,55,39.62a5.38,5.38,0,0,0,.93,2,4.49,4.49,0,0,1,.63,1.08,3.58,3.58,0,0,1-.07,1.92,22.31,22.31,0,0,0-.24,5.16,36.45,36.45,0,0,0,2.33,8.76c1.86,4.94,4.21,9.79,4.81,15,.35,3.11,0,6.52-2.09,8.87C59,85,55.27,85.66,51.82,86.07c-2.76.32-5.93.84-7.36,3.23-.58,1-1.84-19.5.12-21.59,3.56-3.78-11.83-30.48-10.26-34.39,3.8-9,13.53-15,22.94-16.09,4.1-.47,9.36-.73,13.82.58,3.21.78,4.44-.31,6,2.58.17.36.32.73.47,1.1a9.58,9.58,0,0,1,.63,4.4Z" transform="translate(0.02 0)"/></g><g id="Group_106" data-name="Group 106"><path id="Path_438" data-name="Path 438" class="cls-29" d="M59.48,36c-1,2.42-3.72,15.26.49,22,3.77,2.29,5.8,3.38,12.8,17.3a46.82,46.82,0,0,1,3.28,7.34c4.93,14.18,3.13,25,1.64,29.48-5-5.85-13.47-16.46-29.19-17.64-4.94-.15-8,.79-11.32,4.79s-10,16.35-17,14.81c-.77-3.3,1.75-27.44,10.75-51.25,2.39-6.34-2.15-14,.43-27.43,1.45-7.55,3.53-13.64,10-19,11.59-9.58,27.32-.61,28.14,1C69.55,17.29,63.16,22.61,59.48,36Z" transform="translate(0.02 0)"/></g><g id="Group_107" data-name="Group 107"><path id="Path_439" data-name="Path 439" class="cls-2" d="M68.1,33.16c-3.2,2.32-7,.64-8.13,1.16-3.58,10.26-2.27,19.23-.49,22.74,1.5.72,2.78,1.29,4.66,2,4.39,1.21,7.88-3,8.31-7.5l1.91-12.94c.51-5.21-1-11.43-4.38-11.6C70,27.06,70.71,31.23,68.1,33.16Z" transform="translate(0.02 0)"/></g></g><g id="Group_128" data-name="Group 128"><g id="Group_119" data-name="Group 119"><g id="Group_109" data-name="Group 109"><path id="Path_441" data-name="Path 441" class="cls-30" d="M389.54,247.28l-3.67-6.77-6.36,4.37,4.34,6.31Z" transform="translate(0.02 0)"/></g><g id="Group_110" data-name="Group 110"><path id="Path_442" data-name="Path 442" class="cls-30" d="M388.31,244.65s.34,4.93-5.27,5.95c0,0-1.18,7.66-2.79,9.94s-5.17,4.66-5.54,5.58,1,2.34,1,2.34l10-4.34s2.18-6.54,3.58-7.17a4,4,0,0,1,2.93.07l5.82-4s-3.87-6.63-5.07-7.36-2.88-1.69-4.58-1Z" transform="translate(0.02 0)"/></g><path id="Path_443" data-name="Path 443" d="M380.25,246.21c-1.36.53-30.71-23-35.82-34-2.71-5.83-6.84-11.33-8.32-17.4-.67-2.76-1.47-5.27-2.24-8a17.85,17.85,0,0,1-.78-4.22,14.52,14.52,0,0,1,1.11-5.25c20-14.55,40-24.74,64.36-30.68,10.1.56,27.17,3.65,34.37,8.64s6.52,9.17,7.75,14.71.08,8.25-1.24,12.77a17.3,17.3,0,0,1-5.48,8.49c-2.16,1.8-4.91,2-7.57,2.11-5,.19-10.2-.84-15.12-1.76-10.75-2-21.33-4.05-32.17-4.9-2.56-.2-4.94.1-7.34-.05s-4.46-.53-6.77-.73c-1.75-.16-3.43-.4-5,.37a2.29,2.29,0,0,0-1.21,1.27,2.19,2.19,0,0,0,0,1,11.22,11.22,0,0,0,1.13,3.12c1,2.28,27,49.87,27.5,50.88,0,0-6.55,3.33-7.17,3.58Z" transform="translate(0.02 0)"/><path id="Path_444" data-name="Path 444" class="cls-31" d="M431.09,112.13a37.16,37.16,0,0,1-4,10,13,13,0,0,1-3.28,4.07,27.1,27.1,0,0,1-8.13,3.85c-4.15,1.41-8.38,2.61-12.58,3.87-6.74,2-10.19,2.77-11.17,3a57.59,57.59,0,0,1-18.48.44,17.41,17.41,0,0,1-4.73,4.2,17.1,17.1,0,0,1-6.25,2.3,21.06,21.06,0,0,1-4.89.15,32,32,0,0,0-4.15-.21c-2.11.17-4,1.18-6.12,1.52-1.86.3-4-.45-4.11-2.64,0-.4.08-.79,1.35-2.47.79-1.06,1.63-2.09,2.5-3.08,2.12-.48,4.24-1,6.33-1.6,7.58-2.11,11.92-3.48,19.46-5.12.49-.08,1.23-.22,2.12-.42,8.92-2,11.88-5.14,22.85-10.81,7.37-3.8,10.64-4.76,14.37-9.13a26.71,26.71,0,0,0,2.8-4Z" transform="translate(0.02 0)"/><path id="Path_445" data-name="Path 445" class="cls-32" d="M430.05,74.83c1.15-.1-2-6,1.53-7.12,3.19-1,3.47-1.91,4.07-2.47a12.5,12.5,0,0,0,2.93-2.92c2-2.44,6.73-13.82,5.44-18.53-1.52-5.53-1.5-10.32-5.45-13.7-2.84-2.44-12.94-6.65-19.47-3.9-4.46.72-11.8,4.93-13.64,8.48-2.42,4.67-.94,11.17,4,15.62a67.45,67.45,0,0,0,3.89,8,58,58,0,0,0,6.31,9.08c3.75,4.31,6.79,7.8,10.4,7.49Z" transform="translate(0.02 0)"/><g id="Group_111" data-name="Group 111"><path id="Path_446" data-name="Path 446" class="cls-11" d="M351.15,263.44l.81-7.66h-7.72v7.66Z" transform="translate(0.02 0)"/></g><g id="Group_112" data-name="Group 112"><path id="Path_447" data-name="Path 447" class="cls-17" d="M351.63,260.57s-2.52,4.26-7.72,1.92c0,0-7,3.58-9.6,4.54s-11.69,2.89-12.51,3.44-.54,2.47-.54,2.47h18.82s5.22-2.89,6.73-2.61,1,2.61,1,2.61h7.06s.58-7.66,0-8.93S353.41,261,351.63,260.57Z" transform="translate(0.02 0)"/></g><path id="Path_448" data-name="Path 448" class="cls-33" d="M452,171.45a20.72,20.72,0,0,1-1,12.16c-1.23,3.07-2.9,6.5-5.52,8.62-2.2,1.78-5.17,2.38-7.9,2.82a93.18,93.18,0,0,1-15.66.94c-11.42-.09-22.74-.92-34.16-.26a59.48,59.48,0,0,1-8.12.17c-2.54-.2-5-.72-7.6-1a22.69,22.69,0,0,0-5.88-.07,2.11,2.11,0,0,0-1.74,1,3.32,3.32,0,0,0-.2,1.13c-.14,1.36-.22,2.72-.34,4.08-.27,3-8.26,36-8.72,41.62-.39,4.87-3.58,17.91-3.58,17.91s0-1.79-3.58,0c-2.24,1.12-5.38,0-5.38,0s-6.4-60.29-5.61-66.37c.36-2.77.49-5.53.68-8.32a14.55,14.55,0,0,1,.82-4.23,21.25,21.25,0,0,1,3-5L409,152.43s27.83,0,34.9,5.19,8.1,13.83,8.1,13.83Z" transform="translate(0.02 0)"/><g id="Group_114" data-name="Group 114"><path id="Path_449" data-name="Path 449" class="cls-34" d="M439.1,77a26.72,26.72,0,0,1,2.83,5.72q1.5,3.66,2.76,7.41a118.94,118.94,0,0,1,4.16,15.42c2.18,11.23,2.62,22.67,3.33,34.06.33,5.36.71,10.72,1.08,16.09a25.18,25.18,0,0,1-1.65,12.12c-.55,1.23-1.61,3.22-3.26,2.67a5.88,5.88,0,0,1-2.12-1.68,32.52,32.52,0,0,0-4.42-4.36c-3.84-2.76-8.87-4-13.37-5.18-5.23-1.41-10.57-2.17-15.83-3.44a29.47,29.47,0,0,1-3.28-1c-.92-8.68-1.8-17.36-2.95-26a64.32,64.32,0,0,1,1.7-26.62,50.07,50.07,0,0,1,5.66-12.57c2.58-4.06,6.18-7.71,9.15-11.53L437.12,75Z" transform="translate(0.02 0)"/><g class="cls-35"><g id="Group_113" data-name="Group 113"><path id="Path_450" data-name="Path 450" class="cls-36" d="M440.34,101.57c0,5.28-.16,5.28-.4,10.54-.26,5.67-.11,11.49-1.69,17-1.47,5.1-4.88,11.06-10.85,11.1-1.48,0-7.12-.57-7.42-2.1-.09-.47.78-1.8,1-2.25l10.38-24.17a9.38,9.38,0,0,1,.44-1Z" transform="translate(0.02 0)"/></g></g></g><g id="Group_116" data-name="Group 116"><path id="Path_452" data-name="Path 452" class="cls-31" d="M425.5,136.73a36.78,36.78,0,0,1-3,10.33,13.16,13.16,0,0,1-2.9,4.36,27.39,27.39,0,0,1-7.74,4.58c-9.44,4.22-6.09,3-12.16,5a287.29,287.29,0,0,1-30.31,7.81c-4.35,4.58-7.87,5.55-9.23,5.82a30.45,30.45,0,0,1-4.86.6,28.82,28.82,0,0,0-4.15.18c-2.09.36-3.92,1.55-6,2.08-1.82.47-4-.09-4.33-2.26a3.12,3.12,0,0,1,1.11-2.58,23.08,23.08,0,0,1,7.6-5.07q8.28-2.78,16.68-5.17a191.54,191.54,0,0,1,25.87-15c3.25-1.51,9.88-4.21,14.41-11a32.43,32.43,0,0,0,2.42-4.2Z" transform="translate(0.02 0)"/><g class="cls-37"><g id="Group_115" data-name="Group 115"><path id="Path_453" data-name="Path 453" class="cls-38" d="M427.61,141.26s-8.26-4-11.09-4.16-13.28-1.1-13.28-1.1l5.42-7.39,18.47,6.33Z" transform="translate(0.02 0)"/></g></g></g><g id="Group_118" data-name="Group 118"><path id="Path_455" data-name="Path 455" class="cls-31" d="M418.61,79.78a10.53,10.53,0,0,0-2.8-4c-1.59-1.39-5.4-1.8-7.37-2.41-1.29-.4-2.49-.79-2.58-2.28,0-.13-1.42-15.19-.53-16.59.78-1.23.89-7.2,1.19-8a8.37,8.37,0,0,0,.43-2.72c0-.63.11-1.25.19-1.87,1.07.56.72-.14,1.88-.11,1.32,0,1.67,1.22,2.05,2.31A11,11,0,0,0,413.73,49c1.24,1.21,2.38,2.21,2.73,4,.11.59-.4,7,1.94,5.39,1.16-.78,1.06-3.47,1.26-4.57.45-4.33,2.49-6.48,5.1-5.78a4.68,4.68,0,0,1,2.32,5.22c-.43,3.05-3.21,4.43-3.48,5.23-.17.49.86,7.23,1.78,7.89a8.64,8.64,0,0,0,5.88,1.46A7.83,7.83,0,0,0,437.41,71Z" transform="translate(0.02 0)"/><g class="cls-39"><g id="Group_117" data-name="Group 117"><path id="Path_456" data-name="Path 456" class="cls-38" d="M408.91,73.07c-.55.77,8.92.6,13.24-5.07-1.52,4.25-9.44,11.24-9.44,11.24Z" transform="translate(0.02 0)"/></g></g></g><path id="Path_458" data-name="Path 458" class="cls-36" d="M442.11,77.93c1.37-.39-1.2-4-1.52-4.43a5.79,5.79,0,0,0-4.19-2.65,13.06,13.06,0,0,0-6.62,1.34A57.37,57.37,0,0,0,419.62,79c-2.48,1.92-5.25,4-6.9,6.73a7.6,7.6,0,0,0-.9,2.09,10.58,10.58,0,0,0-.28,1.59,6.81,6.81,0,0,0-.22,2.25c.19.71.54.22.93-.21,1.36-1.48,2.46-3.21,3.69-4.8a28.64,28.64,0,0,1,8.37-7.12,18.46,18.46,0,0,1,7.84-2.68c3.16-.23,6.08.92,9.18,1.11a2.9,2.9,0,0,0,.78,0Z" transform="translate(0.02 0)"/><path id="Path_459" data-name="Path 459" class="cls-34" d="M440.39,100.11c-2.42,8.66-4.45,17.44-7,26.08-.85,2.92-1.73,6.09-3.64,8.52a7.65,7.65,0,0,1-3.23,2.2,7.11,7.11,0,0,1-1.55.6c-1.67.35-2.86-.57-4.72-1.42-3.26-1.5-3.48-.46-7.07-2.06-2-.87-2.33-1.38-3.87-1.64-.83-.14-1.56-.14-1.91-.66-.47-.72.16-1.89.32-2.21.28-.55-.5.19,1.85-11.23,1.77-8.56,2.9-17.35,5.95-25.6.39-1,.82-2.08,1.26-3.11Z" transform="translate(0.02 0)"/></g><g id="Group_123" data-name="Group 123"><g id="Group_120" data-name="Group 120"><path id="Rectangle_25" data-name="Rectangle 25" class="cls-7" d="M383.42,264.37l-2.31.19L371.6,147.42l2.31-.19Z" transform="translate(0.02 0)"/></g><g id="Group_121" data-name="Group 121"><path id="Rectangle_26" data-name="Rectangle 26" class="cls-7" d="M384.62,150.63H278.15v-6.5H384.62Z" transform="translate(0.02 0)"/></g><g id="Group_122" data-name="Group 122"><path id="Rectangle_27" data-name="Rectangle 27" class="cls-7" d="M289.7,147.23l2.31.19-9.5,117.14-2.31-.19Z" transform="translate(0.02 0)"/></g></g><g id="Group_124" data-name="Group 124"><rect id="Rectangle_28" data-name="Rectangle 28" class="cls-5" x="383.63" y="194.16" width="64.24" height="12.27" rx="2.03"/><path id="Path_460" data-name="Path 460" class="cls-40" d="M463.23,155.28c0-10.44-.26-20.74.14-31.14a111.92,111.92,0,0,0-.8-20.62c-.44-3-2.45-16.7-8.4-14.12-1.15.5-1.66,2.12-1.85,2.89q.39,31.5.79,63c0,2.74,1.83,5,4.1,5h1.94C461.4,160.24,463.23,158,463.23,155.28Z" transform="translate(0.02 0)"/><path id="Path_461" data-name="Path 461" class="cls-41" d="M463.5,119.94v65.92a20,20,0,0,1-20,20H394.16" transform="translate(0.02 0)"/><path id="Rectangle_29" data-name="Rectangle 29" class="cls-5" d="M422.26,278h-5V208.59h5Z" transform="translate(0.02 0)"/><path id="Rectangle_30" data-name="Rectangle 30" class="cls-42" d="M426.26,263.62h-13V239.14h13Z" transform="translate(0.02 0)"/><path id="Path_462" data-name="Path 462" class="cls-42" d="M376,280.42a78.87,78.87,0,0,1,87.47,0v-4.06a81.43,81.43,0,0,0-87.47,0Z" transform="translate(0.02 0)"/><path id="Path_463" data-name="Path 463" class="cls-42" d="M457.91,280.42A5.59,5.59,0,1,1,463.5,286h0a5.59,5.59,0,0,1-5.59-5.59Z" transform="translate(0.02 0)"/><path id="Path_464" data-name="Path 464" class="cls-42" d="M370.43,280.42A5.6,5.6,0,1,1,376,286h0a5.6,5.6,0,0,1-5.6-5.59Z" transform="translate(0.02 0)"/><path id="Path_465" data-name="Path 465" class="cls-42" d="M414.48,280.42a5.29,5.29,0,1,1,5.28,5.28h0A5.28,5.28,0,0,1,414.48,280.42Z" transform="translate(0.02 0)"/></g><g id="Group_127" data-name="Group 127"><g id="Group_125" data-name="Group 125"><path id="Rectangle_31" data-name="Rectangle 31" class="cls-8" d="M325.24,122.09l-1.87.13-3.76-52.84,1.87-.14Z" transform="translate(0.02 0)"/></g><path id="Rectangle_32" data-name="Rectangle 32" class="cls-8" d="M324.12,143.69l-1.34.09-1.15-16.22,1.33-.1Z" transform="translate(0.02 0)"/><path id="Rectangle_33" data-name="Rectangle 33" class="cls-8" d="M333.68,143v1.33H317.41V143Z" transform="translate(0.02 0)"/><g id="Group_126" data-name="Group 126"><path id="Rectangle_34" data-name="Rectangle 34" class="cls-43" d="M324.36,127.69l-4.09.29-4.41-61.92,4.09-.29Z" transform="translate(0.02 0)"/></g></g></g></g><path class="cls-29" d="M65.19,59.29c1.15.06,2-.94,1.89.15l-1,7.54-1.59-2.46-.33-5.42A5.49,5.49,0,0,0,65.19,59.29Z" transform="translate(0.02 0)"/></svg>